<svg xmlns="http://www.w3.org/2000/svg" version="1.1" xmlns:xlink="http://www.w3.org/1999/xlink" viewBox="0 0 200 200"><rect width="200" height="200" fill="url('#gradient')"></rect><defs><linearGradient id="gradient" gradientTransform="rotate(151 0.5 0.5)"><stop offset="0%" stop-color="#7dabaa"></stop><stop offset="100%" stop-color="#f5e8ce"></stop></linearGradient></defs><g><g fill="#60b4cf" transform="matrix(1.147808564231738,0,0,1.147808564231738,9.767488500357295,108.61418603349392)" stroke="#1a2c38" stroke-width="0.7"><path d="M8.87 0L6.36-5.02L4.50-5.02L4.50 0L1.07 0L1.07-14.22L6.67-14.22Q9.20-14.22 10.63-13.10Q12.05-11.97 12.05-9.92L12.05-9.92Q12.05-8.44 11.45-7.46Q10.85-6.48 9.57-5.88L9.57-5.88L12.54-0.15L12.54 0L8.87 0ZM4.50-11.57L4.50-7.67L6.67-7.67Q7.65-7.67 8.14-8.18Q8.63-8.69 8.63-9.61Q8.63-10.53 8.13-11.05Q7.64-11.57 6.67-11.57L6.67-11.57L4.50-11.57ZM13.56-4.82L13.55-5.38Q13.55-6.96 14.17-8.20Q14.79-9.43 15.94-10.10Q17.09-10.76 18.64-10.76L18.64-10.76Q21.02-10.76 22.38-9.29Q23.75-7.82 23.75-5.29L23.75-5.29L23.75-5.18Q23.75-2.71 22.38-1.25Q21.01 0.20 18.66 0.20L18.66 0.20Q16.41 0.20 15.04-1.16Q13.67-2.51 13.56-4.82L13.56-4.82ZM16.86-5.77L16.85-5.18Q16.85-3.71 17.30-3.03Q17.76-2.34 18.66-2.34L18.66-2.34Q20.42-2.34 20.46-5.05L20.46-5.05L20.46-5.38Q20.46-8.22 18.64-8.22L18.64-8.22Q16.99-8.22 16.86-5.77L16.86-5.77ZM35.01-5.36L35.01-5.20Q35.01-2.60 33.94-1.20Q32.86 0.20 30.91 0.20L30.91 0.20Q29.30 0.20 28.31-1.08L28.31-1.08L28.17 0L25.22 0L25.22-15L28.52-15L28.52-9.72Q29.43-10.76 30.89-10.76L30.89-10.76Q32.86-10.76 33.94-9.35Q35.01-7.93 35.01-5.36L35.01-5.36ZM31.71-5.40L31.71-5.40Q31.71-6.92 31.30-7.57Q30.90-8.22 30.06-8.22L30.06-8.22Q28.95-8.22 28.52-7.37L28.52-7.37L28.52-3.17Q28.94-2.33 30.08-2.33L30.08-2.33Q31.24-2.33 31.55-3.47L31.55-3.47Q31.71-4.02 31.71-5.40ZM36.05-4.82L36.04-5.38Q36.04-6.96 36.66-8.20Q37.28-9.43 38.43-10.10Q39.58-10.76 41.13-10.76L41.13-10.76Q43.51-10.76 44.87-9.29Q46.24-7.82 46.24-5.29L46.24-5.29L46.24-5.18Q46.24-2.71 44.87-1.25Q43.50 0.20 41.15 0.20L41.15 0.20Q38.90 0.20 37.53-1.16Q36.16-2.51 36.05-4.82L36.05-4.82ZM39.35-5.77L39.34-5.18Q39.34-3.71 39.79-3.03Q40.25-2.34 41.15-2.34L41.15-2.34Q42.91-2.34 42.95-5.05L42.95-5.05L42.95-5.38Q42.95-8.22 41.13-8.22L41.13-8.22Q39.48-8.22 39.35-5.77L39.35-5.77ZM48.23-13.19L51.52-13.19L51.52-10.57L53.26-10.57L53.26-8.28L51.52-8.28L51.52-3.45Q51.52-2.85 51.74-2.62Q51.95-2.38 52.59-2.38L52.59-2.38Q53.08-2.38 53.41-2.44L53.41-2.44L53.41-0.09Q52.52 0.20 51.55 0.20L51.55 0.20Q49.85 0.20 49.04-0.61Q48.23-1.41 48.23-3.04L48.23-3.04L48.23-8.28L46.88-8.28L46.88-10.57L48.23-10.57L48.23-13.19ZM65.30-4.82L63.12-4.82L63.12 0L59.69 0L59.69-14.22L65.36-14.22Q66.99-14.22 68.25-13.62Q69.50-13.02 70.19-11.91Q70.88-10.80 70.88-9.39L70.88-9.39Q70.88-7.31 69.39-6.07Q67.90-4.82 65.30-4.82L65.30-4.82ZM63.12-11.57L63.12-7.47L65.36-7.47Q66.36-7.47 66.88-7.97Q67.40-8.47 67.40-9.38L67.40-9.38Q67.40-10.37 66.87-10.97Q66.33-11.56 65.40-11.57L65.40-11.57L63.12-11.57ZM76.03-15L76.03 0L72.72 0L72.72-15L76.03-15ZM87.29 0L84.00 0Q83.83-0.32 83.69-0.95L83.69-0.95Q82.78 0.20 81.15 0.20L81.15 0.20Q79.66 0.20 78.61-0.71Q77.57-1.61 77.57-2.98L77.57-2.98Q77.57-4.70 78.84-5.58Q80.11-6.46 82.53-6.46L82.53-6.46L83.54-6.46L83.54-7.01Q83.54-8.47 82.29-8.47L82.29-8.47Q81.11-8.47 81.11-7.31L81.11-7.31L77.82-7.31Q77.82-8.85 79.13-9.80Q80.43-10.76 82.45-10.76Q84.47-10.76 85.64-9.78Q86.82-8.79 86.85-7.07L86.85-7.07L86.85-2.39Q86.87-0.94 87.29-0.17L87.29-0.17L87.29 0ZM81.94-2.15L81.94-2.15Q82.56-2.15 82.96-2.41Q83.37-2.68 83.54-3.01L83.54-3.01L83.54-4.70L82.59-4.70Q80.87-4.70 80.87-3.15L80.87-3.15Q80.87-2.71 81.17-2.43Q81.47-2.15 81.94-2.15ZM89.21-13.19L92.50-13.19L92.50-10.57L94.24-10.57L94.24-8.28L92.50-8.28L92.50-3.45Q92.50-2.85 92.71-2.62Q92.93-2.38 93.56-2.38L93.56-2.38Q94.05-2.38 94.38-2.44L94.38-2.44L94.38-0.09Q93.50 0.20 92.53 0.20L92.53 0.20Q90.83 0.20 90.02-0.61Q89.21-1.41 89.21-3.04L89.21-3.04L89.21-8.28L87.86-8.28L87.86-10.57L89.21-10.57L89.21-13.19ZM99.56 0L96.26 0L96.26-8.28L94.73-8.28L94.73-10.57L96.26-10.57L96.26-11.41Q96.26-13.21 97.32-14.21Q98.39-15.21 100.31-15.21L100.31-15.21Q101.02-15.21 101.86-15L101.86-15L101.87-12.58Q101.56-12.67 101.05-12.67L101.05-12.67Q99.56-12.67 99.56-11.38L99.56-11.38L99.56-10.57L101.62-10.57L101.62-8.28L99.56-8.28L99.56 0ZM102.37-4.82L102.36-5.38Q102.36-6.96 102.98-8.20Q103.59-9.43 104.75-10.10Q105.90-10.76 107.45-10.76L107.45-10.76Q109.82-10.76 111.19-9.29Q112.56-7.82 112.56-5.29L112.56-5.29L112.56-5.18Q112.56-2.71 111.19-1.25Q109.81 0.20 107.47 0.20L107.47 0.20Q105.21 0.20 103.85-1.16Q102.48-2.51 102.37-4.82L102.37-4.82ZM105.66-5.77L105.65-5.18Q105.65-3.71 106.11-3.03Q106.57-2.34 107.47-2.34L107.47-2.34Q109.23-2.34 109.27-5.05L109.27-5.05L109.27-5.38Q109.27-8.22 107.45-8.22L107.45-8.22Q105.80-8.22 105.66-5.77L105.66-5.77ZM120.46-10.64L120.40-7.59L119.32-7.67Q117.76-7.67 117.32-6.69L117.32-6.69L117.32 0L114.03 0L114.03-10.57L117.12-10.57L117.23-9.21Q118.06-10.76 119.54-10.76L119.54-10.76Q120.07-10.76 120.46-10.64L120.46-10.64ZM121.61-10.57L124.70-10.57L124.80-9.33Q125.93-10.76 127.82-10.76L127.82-10.76Q129.82-10.76 130.53-9.17L130.53-9.17Q131.60-10.76 133.63-10.76L133.63-10.76Q136.85-10.76 136.93-6.88L136.93-6.88L136.93 0L133.63 0L133.63-6.67Q133.63-7.48 133.36-7.85Q133.09-8.22 132.36-8.22L132.36-8.22Q131.39-8.22 130.91-7.35L130.91-7.35L130.92-7.22L130.92 0L127.62 0L127.62-6.65Q127.62-7.48 127.35-7.85Q127.09-8.22 126.35-8.22L126.35-8.22Q125.40-8.22 124.90-7.35L124.90-7.35L124.90 0L121.61 0L121.61-10.57ZM143.93 0.20L143.93 0.20Q141.49 0.20 139.99-1.25Q138.49-2.71 138.49-5.03L138.49-5.03L138.49-5.30Q138.49-6.92 139.09-8.16Q139.69-9.40 140.84-10.08Q141.99-10.76 143.57-10.76L143.57-10.76Q145.80-10.76 147.09-9.38Q148.38-8.00 148.38-5.53L148.38-5.53L148.38-4.25L141.84-4.25Q142.01-3.36 142.61-2.85Q143.20-2.34 144.15-2.34L144.15-2.34Q145.71-2.34 146.59-3.44L146.59-3.44L148.10-1.66Q147.48-0.81 146.35-0.31Q145.22 0.20 143.93 0.20ZM143.55-8.22L143.55-8.22Q142.11-8.22 141.84-6.31L141.84-6.31L145.16-6.31L145.16-6.56Q145.18-7.35 144.76-7.79Q144.34-8.22 143.55-8.22ZM156.15-10.64L156.09-7.59L155.01-7.67Q153.46-7.67 153.02-6.69L153.02-6.69L153.02 0L149.73 0L149.73-10.57L152.81-10.57L152.92-9.21Q153.75-10.76 155.23-10.76L155.23-10.76Q155.76-10.76 156.15-10.64L156.15-10.64Z"></path></g></g></svg>