<svg xmlns="http://www.w3.org/2000/svg" xmlns:xlink="http://www.w3.org/1999/xlink" width="1080" zoomAndPan="magnify" viewBox="0 0 810 809.999993" height="1080" preserveAspectRatio="xMidYMid meet" version="1.0"><path fill="#2880eb" d="M 191.300781 137.042969 C 198.140625 137.035156 204.984375 136.976562 211.828125 136.917969 C 216.1875 136.910156 220.546875 136.902344 224.910156 136.898438 C 228.871094 136.886719 232.828125 136.875 236.910156 136.859375 C 246.628906 137.585938 251.824219 138.410156 259.726562 143.917969 C 267.398438 155.425781 268.132812 165.730469 269.558594 179.117188 C 269.832031 181.476562 270.105469 183.835938 270.382812 186.265625 C 271.050781 192.074219 271.683594 197.886719 272.3125 203.699219 C 275.65625 202.828125 278.996094 201.957031 282.441406 201.058594 C 286.929688 199.90625 291.421875 198.753906 295.910156 197.601562 C 298.101562 197.03125 300.292969 196.457031 302.546875 195.863281 C 305.832031 195.027344 305.832031 195.027344 309.183594 194.175781 C 312.152344 193.40625 312.152344 193.40625 315.175781 192.625 C 336.28125 188.359375 357.007812 187.433594 378.464844 187.328125 C 381.359375 187.308594 384.257812 187.292969 387.238281 187.273438 C 393.355469 187.246094 399.472656 187.222656 405.589844 187.210938 C 414.734375 187.179688 423.882812 187.082031 433.027344 186.984375 C 467.808594 186.796875 500.667969 189.265625 534.863281 195.675781 C 545.515625 198.429688 545.515625 198.429688 552.335938 194.261719 C 554.136719 184.015625 555.15625 173.765625 556.246094 163.421875 C 558.960938 151.957031 562.011719 147.921875 571.214844 140.769531 C 587.175781 135.453125 604.128906 136.914062 620.832031 136.867188 C 627.410156 136.839844 633.988281 136.742188 640.570312 136.640625 C 644.777344 136.621094 648.984375 136.605469 653.191406 136.59375 C 658.910156 136.546875 658.910156 136.546875 664.742188 136.503906 C 675.949219 137.722656 681.816406 140.367188 690.777344 147.0625 C 695.820312 155.824219 697.695312 165.625 700.214844 175.382812 C 701.097656 178.191406 701.976562 181.003906 702.882812 183.898438 C 712.296875 217.304688 710.558594 251.097656 709.65625 285.507812 C 713.113281 286.359375 716.574219 287.210938 720.136719 288.085938 C 734.421875 292.683594 738.609375 298.78125 747.410156 310.679688 C 753.921875 317.394531 760.601562 323.832031 767.433594 330.21875 C 776.179688 339.472656 782.367188 348.734375 788.902344 359.644531 C 791.023438 363.152344 793.144531 366.660156 795.332031 370.277344 C 809.023438 393.941406 809.023438 393.941406 807.191406 408.21875 C 805.640625 409.636719 804.09375 411.054688 802.496094 412.519531 C 795.042969 420.589844 796.453125 428.925781 796.191406 439.496094 C 794.605469 445.972656 794.605469 445.972656 788.203125 449.992188 C 786.164062 450.742188 784.121094 451.496094 782.019531 452.265625 C 783.609375 455 785.199219 457.734375 786.839844 460.550781 C 788.90625 464.210938 790.96875 467.875 793.03125 471.539062 C 795.078125 475.117188 797.121094 478.695312 799.226562 482.378906 C 804.242188 493.613281 805.714844 499.941406 804.042969 512.050781 C 786.128906 544.5625 743.75 570.5625 713.785156 591.300781 C 710.503906 593.574219 710.503906 593.574219 707.15625 595.894531 C 691.585938 606.441406 691.585938 606.441406 684.484375 606.441406 C 684.207031 608.296875 683.933594 610.148438 683.648438 612.058594 C 678.96875 626.167969 665.183594 633.523438 653.019531 641.054688 C 642.976562 645.503906 632.914062 649.324219 622.527344 652.890625 C 614.519531 655.886719 607.640625 659.039062 600.148438 663.015625 C 586.1875 670.148438 572.054688 673.996094 556.859375 677.628906 C 554.367188 678.269531 551.875 678.910156 549.308594 679.570312 C 503.929688 690.730469 458.988281 692.667969 412.523438 692.574219 C 409.617188 692.578125 406.714844 692.578125 403.722656 692.578125 C 357.738281 692.492188 314.027344 689.695312 269.167969 678.808594 C 265.175781 677.902344 261.183594 676.992188 257.074219 676.058594 C 209.769531 663.90625 164.644531 643.914062 122.800781 618.964844 C 115.464844 614.640625 108.152344 610.984375 100.296875 607.695312 C 91.585938 604.035156 83.859375 600.207031 75.863281 595.234375 C 72.65625 593.28125 72.65625 593.28125 69.386719 591.289062 C 67.824219 590.058594 66.265625 588.828125 64.65625 587.5625 C 64.65625 585.488281 64.65625 583.410156 64.65625 581.269531 C 62.222656 580.101562 62.222656 580.101562 59.738281 578.910156 C 57.207031 577.613281 54.675781 576.316406 52.070312 574.976562 C 48.4375 573.226562 44.800781 571.472656 41.058594 569.667969 C 28.75 562.53125 23.3125 553.019531 17.460938 540.367188 C 15.648438 537.09375 15.648438 537.09375 13.796875 533.753906 C 4.242188 515.359375 3.558594 500.761719 8.019531 480.585938 C 9.578125 477.46875 9.578125 477.46875 11.167969 474.292969 C 11.980469 462.148438 11.984375 450.054688 9.59375 438.109375 C 3.949219 409.894531 8.601562 382.117188 23.753906 357.875 C 25.261719 353.109375 26.695312 348.320312 28.078125 343.519531 C 36.398438 318.054688 61.101562 309.808594 83.53125 298.09375 C 86.046875 296.769531 88.5625 295.449219 91.152344 294.085938 C 107.824219 285.507812 107.824219 285.507812 114.996094 285.507812 C 114.960938 282.492188 114.921875 279.480469 114.886719 276.375 C 114.027344 175.4375 114.027344 175.4375 127.582031 150.210938 C 146.152344 133.792969 167.988281 137.039062 191.300781 137.042969 Z M 191.300781 137.042969 " fill-opacity="1" fill-rule="nonzero"/><path fill="#257eeb" d="M 372.972656 300.488281 C 375.945312 300.464844 378.917969 300.4375 381.980469 300.410156 C 388.257812 300.367188 394.535156 300.335938 400.8125 300.308594 C 407.121094 300.273438 413.429688 300.210938 419.738281 300.117188 C 471.421875 299.351562 521.277344 302.148438 568.070312 326.410156 C 568.070312 328.488281 568.070312 330.5625 568.070312 332.703125 C 570.34375 333.476562 572.621094 334.253906 574.964844 335.050781 C 605.121094 348.515625 625.53125 377.769531 639.453125 406.644531 C 640.816406 410.277344 642.175781 413.914062 643.582031 417.65625 C 644.894531 420.734375 644.894531 420.734375 646.234375 423.875 C 654.898438 445.929688 658.566406 471.738281 650.253906 494.425781 C 646.441406 500.996094 642.363281 506.402344 637.289062 512.050781 C 635.835938 513.679688 634.386719 515.308594 632.890625 516.992188 C 600.617188 548.28125 553.96875 559.5625 511.433594 568.683594 C 509.0625 569.203125 506.691406 569.722656 504.25 570.261719 C 425.59375 586.84375 347.277344 579.707031 270.542969 558.261719 C 267.4375 557.410156 264.328125 556.554688 261.128906 555.675781 C 225.125 545.03125 194.25 526.96875 174.605469 494.105469 C 168.929688 480.316406 170.140625 466.851562 171.628906 452.265625 C 171.894531 449.632812 172.15625 446.996094 172.429688 444.277344 C 178.882812 401.488281 210.152344 359.507812 244.4375 333.980469 C 283.640625 308.539062 327.078125 300.871094 372.972656 300.488281 Z M 372.972656 300.488281 " fill-opacity="1" fill-rule="nonzero"/><path fill="#e5f1fc" d="M 184.214844 191.113281 C 193.558594 191.113281 202.90625 191.113281 212.53125 191.113281 C 212.613281 193.289062 212.691406 195.464844 212.773438 197.707031 C 213.136719 207.503906 213.523438 217.304688 213.910156 227.101562 C 214.03125 230.527344 214.15625 233.953125 214.285156 237.480469 C 214.417969 240.734375 214.546875 243.992188 214.683594 247.34375 C 214.855469 251.867188 214.855469 251.867188 215.035156 256.480469 C 214.917969 263.390625 214.917969 263.390625 218.824219 266.628906 C 225.320312 266.589844 231.8125 266.28125 238.292969 265.839844 C 243.617188 265.523438 243.617188 265.523438 249.046875 265.203125 C 260.589844 263.34375 268.203125 259.25 278.605469 254.042969 C 287.433594 251.753906 296.34375 250.324219 305.351562 248.929688 C 307.65625 248.546875 309.964844 248.167969 312.34375 247.773438 C 316.671875 247.0625 321.003906 246.359375 325.339844 245.675781 C 330.449219 244.863281 335.539062 243.929688 340.621094 242.941406 C 353.300781 241.121094 365.671875 240.886719 378.464844 240.816406 C 381.105469 240.800781 383.746094 240.78125 386.464844 240.761719 C 392.054688 240.734375 397.640625 240.714844 403.226562 240.699219 C 411.589844 240.671875 419.949219 240.574219 428.308594 240.472656 C 532.789062 239.824219 532.789062 239.824219 557.722656 261.96875 C 559.058594 263.507812 560.398438 265.042969 561.777344 266.628906 C 565.539062 268.378906 569.304688 270.132812 573.183594 271.9375 C 616.371094 293.019531 643.738281 337.304688 662.460938 379.898438 C 663.957031 383.246094 665.453125 386.59375 666.996094 390.039062 C 676.679688 413.191406 680.835938 433.554688 681.335938 458.558594 C 681.53125 462.242188 681.726562 465.925781 681.925781 469.71875 C 682.738281 493.339844 681.191406 510.6875 668.753906 530.929688 C 667.1875 533.546875 665.621094 536.167969 664.007812 538.867188 C 641.523438 573.691406 610.332031 589.644531 573.902344 606.785156 C 569.019531 609.132812 564.222656 611.664062 559.453125 614.234375 C 512.046875 638.882812 458.164062 639.074219 406.03125 639.085938 C 403.460938 639.09375 400.890625 639.097656 398.242188 639.105469 C 353.308594 639.09375 312 634.101562 268.773438 621.191406 C 265.648438 620.300781 262.519531 619.410156 259.296875 618.492188 C 240.269531 612.898438 222.488281 606.019531 204.59375 597.464844 C 196.863281 593.886719 189.074219 590.867188 181.070312 587.957031 C 136.558594 570.375 97.886719 536.15625 61.507812 505.757812 C 63.335938 494.128906 66.511719 485.503906 72.359375 475.3125 C 73.96875 472.484375 75.578125 469.660156 77.238281 466.746094 C 78.988281 463.722656 80.742188 460.695312 82.550781 457.578125 C 85.273438 452.820312 85.273438 452.820312 88.054688 447.964844 C 93.859375 437.84375 99.703125 427.75 105.558594 417.65625 C 107.453125 414.386719 109.34375 411.117188 111.296875 407.75 C 115.054688 401.265625 118.820312 394.789062 122.59375 388.316406 C 126.320312 381.902344 130.027344 375.476562 133.714844 369.039062 C 141.691406 355.183594 149.65625 341.71875 159.265625 328.929688 C 189.304688 287.542969 185.492188 240.316406 184.214844 191.113281 Z M 213.195312 362.164062 C 191.148438 388.460938 174.214844 417.625 171.628906 452.265625 C 171.265625 456.441406 171.265625 456.441406 170.894531 460.699219 C 169.816406 482.28125 173.074219 495.675781 187.363281 512.050781 C 213.488281 539.796875 246.261719 551.667969 282.34375 561.410156 C 285.832031 562.355469 289.324219 563.304688 292.917969 564.28125 C 318.527344 571.058594 343.296875 576.902344 369.851562 578.125 C 372.722656 578.257812 375.59375 578.390625 378.550781 578.527344 C 429.382812 580.472656 477.464844 576.21875 527.167969 565.539062 C 530.472656 564.859375 530.472656 564.859375 533.84375 564.164062 C 572.613281 555.898438 618.355469 537.464844 643.175781 505.203125 C 655.238281 485.707031 655.109375 468.699219 653.019531 445.972656 C 650.035156 433.800781 645.636719 422.75 640.433594 411.363281 C 639.1875 408.566406 637.9375 405.765625 636.648438 402.882812 C 622.140625 372.117188 601.839844 352.613281 574.363281 332.703125 C 572.285156 332.703125 570.207031 332.703125 568.070312 332.703125 C 568.070312 330.625 568.070312 328.550781 568.070312 326.410156 C 521.582031 302.304688 471.800781 299.285156 420.429688 299.945312 C 411.089844 300.058594 401.753906 300.074219 392.414062 300.070312 C 323.339844 300.320312 263.152344 310.539062 213.195312 362.164062 Z M 213.195312 362.164062 " fill-opacity="1" fill-rule="nonzero"/><path fill="#e4f0fc" d="M 191.300781 137.042969 C 198.140625 137.035156 204.984375 136.976562 211.828125 136.917969 C 216.1875 136.910156 220.546875 136.902344 224.910156 136.898438 C 228.871094 136.886719 232.828125 136.875 236.910156 136.859375 C 246.628906 137.585938 251.824219 138.410156 259.726562 143.917969 C 267.398438 155.425781 268.132812 165.730469 269.558594 179.117188 C 269.832031 181.476562 270.105469 183.835938 270.382812 186.265625 C 271.050781 192.074219 271.683594 197.886719 272.3125 203.699219 C 275.65625 202.828125 278.996094 201.957031 282.441406 201.058594 C 286.929688 199.90625 291.421875 198.753906 295.910156 197.601562 C 298.101562 197.03125 300.292969 196.457031 302.546875 195.863281 C 305.832031 195.027344 305.832031 195.027344 309.183594 194.175781 C 312.152344 193.40625 312.152344 193.40625 315.175781 192.625 C 336.28125 188.359375 357.007812 187.433594 378.464844 187.328125 C 381.359375 187.308594 384.257812 187.292969 387.238281 187.273438 C 393.355469 187.246094 399.472656 187.222656 405.589844 187.210938 C 414.734375 187.179688 423.882812 187.082031 433.027344 186.984375 C 467.808594 186.796875 500.667969 189.265625 534.863281 195.675781 C 545.515625 198.429688 545.515625 198.429688 552.335938 194.261719 C 554.136719 184.015625 555.15625 173.765625 556.246094 163.421875 C 558.960938 151.957031 562.011719 147.921875 571.214844 140.769531 C 587.175781 135.453125 604.128906 136.914062 620.832031 136.867188 C 627.410156 136.839844 633.988281 136.742188 640.570312 136.640625 C 644.777344 136.621094 648.984375 136.605469 653.191406 136.59375 C 658.910156 136.546875 658.910156 136.546875 664.742188 136.503906 C 675.949219 137.722656 681.816406 140.367188 690.777344 147.0625 C 695.820312 155.824219 697.695312 165.625 700.214844 175.382812 C 701.097656 178.191406 701.976562 181.003906 702.882812 183.898438 C 712.296875 217.304688 710.558594 251.097656 709.65625 285.507812 C 713.113281 286.359375 716.574219 287.210938 720.136719 288.085938 C 734.421875 292.683594 738.609375 298.78125 747.410156 310.679688 C 751.542969 314.933594 755.730469 319.140625 759.996094 323.265625 C 763.140625 326.410156 766.289062 329.558594 769.433594 332.703125 C 762.167969 331.664062 754.898438 330.625 747.410156 329.558594 C 748.515625 331.894531 749.617188 334.230469 750.753906 336.636719 C 753.84375 345.703125 753.804688 349.101562 750.558594 357.875 C 740.660156 344.351562 735.589844 333.265625 731.679688 316.972656 C 723.371094 314.894531 715.066406 312.816406 706.507812 310.679688 C 707.546875 317.945312 708.585938 325.214844 709.65625 332.703125 C 699.730469 324.242188 694.777344 313.875 688.808594 302.417969 C 683.03125 290.0625 683.03125 290.0625 675.042969 279.214844 C 674.765625 270.597656 674.683594 262.058594 674.738281 253.441406 C 674.746094 249.570312 674.746094 249.570312 674.75 245.625 C 674.769531 237.351562 674.808594 229.078125 674.847656 220.808594 C 674.863281 215.214844 674.878906 209.621094 674.890625 204.023438 C 674.925781 190.28125 674.980469 176.539062 675.042969 162.796875 C 665.386719 159.578125 658.722656 159.242188 648.609375 159.230469 C 643.628906 159.226562 643.628906 159.226562 638.546875 159.21875 C 633.351562 159.238281 633.351562 159.238281 628.046875 159.257812 C 624.59375 159.242188 621.140625 159.230469 617.582031 159.21875 C 614.257812 159.222656 610.933594 159.226562 607.507812 159.230469 C 604.472656 159.234375 601.433594 159.238281 598.304688 159.242188 C 589.261719 159.425781 589.261719 159.425781 577.507812 162.796875 C 577.507812 184.601562 577.507812 206.40625 577.507812 228.871094 C 566.601562 227.054688 556.183594 225.300781 545.503906 222.773438 C 541.976562 221.960938 541.976562 221.960938 538.375 221.128906 C 533.570312 220.007812 528.769531 218.878906 523.972656 217.734375 C 490.019531 209.945312 456.273438 209.351562 421.566406 209.402344 C 419.335938 209.402344 417.101562 209.402344 414.800781 209.40625 C 370.476562 209.484375 328.40625 212.269531 285.292969 223.574219 C 272.75 226.316406 259.902344 227.453125 247.144531 228.871094 C 247.144531 207.066406 247.144531 185.261719 247.144531 162.796875 C 237.019531 159.421875 229.640625 159.242188 218.996094 159.230469 C 213.527344 159.226562 213.527344 159.226562 207.949219 159.21875 C 204.140625 159.230469 200.332031 159.242188 196.40625 159.257812 C 192.574219 159.242188 188.742188 159.230469 184.792969 159.21875 C 179.335938 159.226562 179.335938 159.226562 173.769531 159.230469 C 168.742188 159.238281 168.742188 159.238281 163.617188 159.242188 C 156.070312 158.777344 156.070312 158.777344 152.753906 162.796875 C 152.25 171.636719 151.9375 180.410156 151.757812 189.257812 C 151.691406 191.90625 151.625 194.558594 151.558594 197.285156 C 151.351562 205.78125 151.167969 214.277344 150.984375 222.773438 C 150.847656 228.519531 150.710938 234.265625 150.570312 240.011719 C 150.234375 254.128906 149.914062 268.242188 149.605469 282.359375 C 147.53125 282.359375 145.453125 282.359375 143.3125 282.359375 C 139.929688 290.707031 136.722656 298.984375 133.875 307.53125 C 131.75 307.578125 129.625 307.621094 127.433594 307.667969 C 118.839844 308.125 110.816406 308.792969 102.410156 310.679688 C 98.136719 315.859375 93.9375 321.101562 89.824219 326.410156 C 83.359375 327.257812 83.359375 327.257812 75.863281 327.394531 C 65.183594 327.988281 65.183594 327.988281 56.839844 334.09375 C 52.671875 340.789062 49.238281 347.636719 45.777344 354.726562 C 44.082031 357.5625 42.386719 360.398438 40.640625 363.320312 C 27.070312 385.917969 27.070312 385.917969 26.898438 411.363281 C 30.015625 413.441406 33.128906 415.515625 36.339844 417.65625 C 37.257812 425.84375 37.257812 425.84375 36.929688 435.355469 C 36.84375 438.511719 36.757812 441.667969 36.667969 444.917969 C 36.558594 447.34375 36.449219 449.769531 36.339844 452.265625 C 38.414062 452.265625 40.492188 452.265625 42.628906 452.265625 C 41.550781 463.804688 37.796875 471.007812 31.421875 480.386719 C 26.355469 488.320312 23.664062 493.53125 21.394531 502.808594 C 25.121094 517.414062 34.542969 524.496094 45.777344 534.074219 C 49.769531 537.5 49.769531 537.5 53.839844 540.996094 C 72.460938 556.574219 91.742188 570.828125 111.851562 584.417969 C 114.320312 586.140625 116.789062 587.863281 119.335938 589.640625 C 133.226562 599.207031 146.554688 606.265625 162.191406 612.734375 C 167.371094 615.640625 172.53125 618.582031 177.675781 621.546875 C 196.898438 632.089844 216.523438 639.511719 237.308594 646.363281 C 240.996094 647.585938 244.683594 648.808594 248.480469 650.066406 C 281.304688 660.539062 313.617188 666.15625 347.824219 669.371094 C 350.382812 669.65625 352.941406 669.941406 355.574219 670.234375 C 424.675781 677.828125 495.523438 673.445312 561.847656 652.433594 C 567.535156 650.660156 573.277344 649.042969 579.019531 647.445312 C 618.265625 636.355469 653.90625 617.71875 689.167969 597.59375 C 691.773438 596.359375 694.382812 595.128906 697.070312 593.855469 C 699.144531 594.894531 701.222656 595.933594 703.363281 597.003906 C 691.5625 606.441406 691.5625 606.441406 684.484375 606.441406 C 684.207031 608.296875 683.933594 610.148438 683.648438 612.058594 C 678.96875 626.167969 665.183594 633.523438 653.019531 641.054688 C 642.976562 645.503906 632.914062 649.324219 622.527344 652.890625 C 614.519531 655.886719 607.640625 659.039062 600.148438 663.015625 C 586.1875 670.148438 572.054688 673.996094 556.859375 677.628906 C 554.367188 678.269531 551.875 678.910156 549.308594 679.570312 C 503.929688 690.730469 458.988281 692.667969 412.523438 692.574219 C 409.617188 692.578125 406.714844 692.578125 403.722656 692.578125 C 357.738281 692.492188 314.027344 689.695312 269.167969 678.808594 C 265.175781 677.902344 261.183594 676.992188 257.074219 676.058594 C 209.769531 663.90625 164.644531 643.914062 122.800781 618.964844 C 115.464844 614.640625 108.152344 610.984375 100.296875 607.695312 C 91.585938 604.035156 83.859375 600.207031 75.863281 595.234375 C 72.65625 593.28125 72.65625 593.28125 69.386719 591.289062 C 67.824219 590.058594 66.265625 588.828125 64.65625 587.5625 C 64.65625 585.488281 64.65625 583.410156 64.65625 581.269531 C 62.222656 580.101562 62.222656 580.101562 59.738281 578.910156 C 57.207031 577.613281 54.675781 576.316406 52.070312 574.976562 C 48.4375 573.226562 44.800781 571.472656 41.058594 569.667969 C 28.75 562.53125 23.3125 553.019531 17.460938 540.367188 C 15.648438 537.09375 15.648438 537.09375 13.796875 533.753906 C 4.242188 515.359375 3.558594 500.761719 8.019531 480.585938 C 9.578125 477.46875 9.578125 477.46875 11.167969 474.292969 C 11.980469 462.148438 11.984375 450.054688 9.59375 438.109375 C 3.949219 409.894531 8.601562 382.117188 23.753906 357.875 C 25.261719 353.109375 26.695312 348.320312 28.078125 343.519531 C 36.398438 318.054688 61.101562 309.808594 83.53125 298.09375 C 86.046875 296.769531 88.5625 295.449219 91.152344 294.085938 C 107.824219 285.507812 107.824219 285.507812 114.996094 285.507812 C 114.960938 282.492188 114.921875 279.480469 114.886719 276.375 C 114.027344 175.4375 114.027344 175.4375 127.582031 150.210938 C 146.152344 133.792969 167.988281 137.039062 191.300781 137.042969 Z M 191.300781 137.042969 " fill-opacity="1" fill-rule="nonzero"/><path fill="#ddedfc" d="M 697.070312 593.855469 C 700.183594 595.414062 700.183594 595.414062 703.363281 597.003906 C 691.5625 606.441406 691.5625 606.441406 684.484375 606.441406 C 684.207031 608.296875 683.933594 610.148438 683.648438 612.058594 C 678.96875 626.167969 665.183594 633.523438 653.019531 641.054688 C 642.976562 645.503906 632.914062 649.324219 622.527344 652.890625 C 614.519531 655.886719 607.640625 659.039062 600.148438 663.015625 C 586.195312 670.144531 572.054688 674.023438 556.859375 677.628906 C 554.078125 678.296875 551.296875 678.960938 548.429688 679.648438 C 495.9375 691.882812 445.582031 692.15625 391.875 691.394531 C 391.875 690.359375 391.875 689.320312 391.875 688.25 C 395.445312 687.859375 399.011719 687.472656 402.691406 687.070312 C 406.390625 686.421875 410.085938 685.773438 413.898438 685.101562 C 414.9375 683.027344 415.976562 680.949219 417.046875 678.808594 C 413.820312 678.847656 410.597656 678.882812 407.273438 678.921875 C 402.992188 678.949219 398.710938 678.980469 394.429688 679.007812 C 392.3125 679.035156 390.191406 679.058594 388.007812 679.085938 C 376.285156 679.144531 365.511719 678.472656 354.117188 675.664062 C 354.117188 674.625 354.117188 673.585938 354.117188 672.515625 C 356.535156 672.550781 358.953125 672.582031 361.445312 672.617188 C 430.058594 673.425781 495.84375 673.34375 561.847656 652.433594 C 567.535156 650.660156 573.277344 649.042969 579.019531 647.445312 C 618.265625 636.355469 653.90625 617.71875 689.167969 597.59375 C 691.773438 596.359375 694.382812 595.128906 697.070312 593.855469 Z M 697.070312 593.855469 " fill-opacity="1" fill-rule="nonzero"/><path fill="#eef8fe" d="M 709.65625 285.507812 C 728.777344 289.257812 735.496094 294.578125 747.410156 310.679688 C 751.542969 314.933594 755.730469 319.140625 759.996094 323.265625 C 763.140625 326.410156 766.289062 329.558594 769.433594 332.703125 C 762.167969 331.664062 754.898438 330.625 747.410156 329.558594 C 748.515625 331.894531 749.617188 334.230469 750.753906 336.636719 C 753.84375 345.703125 753.804688 349.101562 750.558594 357.875 C 740.660156 344.351562 735.589844 333.265625 731.679688 316.972656 C 723.371094 314.894531 715.066406 312.816406 706.507812 310.679688 C 707.546875 317.945312 708.585938 325.214844 709.65625 332.703125 C 701.082031 325.300781 697.652344 318.152344 693.921875 307.53125 C 701.851562 303.566406 706.050781 304.640625 714.765625 305.761719 C 718.625 306.242188 718.625 306.242188 722.558594 306.734375 C 725.515625 307.128906 725.515625 307.128906 728.53125 307.53125 C 728.53125 303.378906 728.53125 299.226562 728.53125 294.945312 C 722.304688 292.871094 716.074219 290.792969 709.65625 288.652344 C 709.65625 287.613281 709.65625 286.578125 709.65625 285.507812 Z M 709.65625 285.507812 " fill-opacity="1" fill-rule="nonzero"/><path fill="#f2fafe" d="M 55.214844 313.824219 C 57.292969 314.863281 59.371094 315.902344 61.507812 316.972656 C 59.042969 319.046875 56.578125 321.125 54.035156 323.265625 C 43.988281 334.746094 42.367188 343.335938 39.484375 357.875 C 36.082031 368.929688 32.382812 379.152344 26.898438 389.339844 C 24.824219 389.339844 22.746094 389.339844 20.605469 389.339844 C 14.46875 402.167969 13.632812 412.359375 13.921875 426.507812 C 13.976562 430.160156 14.035156 433.816406 14.09375 437.578125 C 14.164062 440.351562 14.238281 443.121094 14.3125 445.972656 C 13.273438 445.972656 12.238281 445.972656 11.167969 445.972656 C 4.523438 420.230469 5.378906 389.144531 18.835938 365.742188 C 20.457031 363.144531 22.082031 360.550781 23.753906 357.875 C 25.261719 353.109375 26.695312 348.320312 28.078125 343.519531 C 32.183594 330.46875 37.015625 324.300781 48.921875 316.972656 C 51 315.933594 53.078125 314.894531 55.214844 313.824219 Z M 55.214844 313.824219 " fill-opacity="1" fill-rule="nonzero"/><path fill="#d8ecfc" d="M 697.070312 593.855469 C 699.144531 594.894531 701.222656 595.933594 703.363281 597.003906 C 691.5625 606.441406 691.5625 606.441406 684.484375 606.441406 C 684.132812 608.3125 683.777344 610.183594 683.414062 612.109375 C 680.355469 622.304688 675.519531 627.175781 667.449219 633.9375 C 649.671875 642.609375 628.402344 641.007812 608.972656 641.054688 C 612.941406 633.117188 615.765625 632.601562 623.820312 629.191406 C 626.222656 628.15625 628.625 627.121094 631.101562 626.050781 C 633.660156 624.964844 636.222656 623.882812 638.863281 622.765625 C 657.3125 614.8125 675.144531 606.730469 692.25 596.105469 C 693.839844 595.363281 695.429688 594.621094 697.070312 593.855469 Z M 697.070312 593.855469 " fill-opacity="1" fill-rule="nonzero"/><path fill="#f2f2f2" d="M 690.777344 153.355469 C 710.917969 173.5 710.367188 219.476562 710.527344 246.136719 C 710.40625 260.316406 710.148438 274.484375 709.65625 288.652344 C 707.578125 288.652344 705.5 288.652344 703.363281 288.652344 C 703.363281 266.847656 703.363281 245.042969 703.363281 222.578125 C 700.246094 221.539062 697.132812 220.5 693.921875 219.433594 C 693.960938 217.5625 693.996094 215.691406 694.035156 213.765625 C 694.253906 193.445312 692.925781 173.558594 690.777344 153.355469 Z M 690.777344 153.355469 " fill-opacity="1" fill-rule="nonzero"/><path fill="#fdfefe" d="M 23.753906 540.367188 C 33.285156 545.777344 41.886719 550.726562 48.921875 559.246094 C 48.921875 561.324219 48.921875 563.398438 48.921875 565.539062 C 50.722656 566.414062 52.523438 567.289062 54.378906 568.195312 C 61.402344 571.777344 68.144531 575.605469 74.878906 579.699219 C 77.101562 581.027344 79.324219 582.359375 81.617188 583.730469 C 83.285156 584.996094 84.957031 586.261719 86.679688 587.5625 C 86.679688 589.640625 86.679688 591.71875 86.679688 593.855469 C 88.757812 593.855469 90.832031 593.855469 92.972656 593.855469 C 92.972656 595.933594 92.972656 598.011719 92.972656 600.148438 C 98.164062 601.1875 103.355469 602.226562 108.703125 603.296875 C 108.703125 605.371094 108.703125 607.449219 108.703125 609.589844 C 97.613281 607.488281 89.25 602.96875 79.601562 597.199219 C 76.792969 595.550781 73.988281 593.898438 71.09375 592.199219 C 68.96875 590.667969 66.84375 589.140625 64.65625 587.5625 C 64.65625 585.488281 64.65625 583.410156 64.65625 581.269531 C 63.03125 580.492188 61.410156 579.714844 59.738281 578.910156 C 26.949219 562.09375 26.949219 562.09375 20.605469 549.808594 C 21.644531 546.691406 22.683594 543.578125 23.753906 540.367188 Z M 23.753906 540.367188 " fill-opacity="1" fill-rule="nonzero"/><path fill="#b8d6f8" d="M 479.972656 464.851562 C 498.660156 464.851562 517.351562 464.851562 536.605469 464.851562 C 535.566406 470.042969 534.53125 475.238281 533.460938 480.585938 C 516.847656 480.585938 500.234375 480.585938 483.117188 480.585938 C 482.078125 475.394531 481.042969 470.203125 479.972656 464.851562 Z M 479.972656 464.851562 " fill-opacity="1" fill-rule="nonzero"/><path fill="#b7d6f8" d="M 288.046875 464.851562 C 306.734375 464.851562 325.421875 464.851562 344.679688 464.851562 C 343.640625 470.042969 342.601562 475.238281 341.53125 480.585938 C 324.921875 480.585938 308.308594 480.585938 291.191406 480.585938 C 290.152344 475.394531 289.113281 470.203125 288.046875 464.851562 Z M 288.046875 464.851562 " fill-opacity="1" fill-rule="nonzero"/><path fill="#fdfefe" d="M 140.167969 140.769531 C 143.28125 141.808594 146.398438 142.847656 149.605469 143.917969 C 147.59375 145.214844 145.582031 146.511719 143.511719 147.851562 C 136.03125 154.195312 135.589844 156.578125 133.875 165.941406 C 133.171875 174.605469 132.570312 183.226562 132.105469 191.902344 C 131.96875 194.246094 131.832031 196.589844 131.691406 199.003906 C 131.359375 204.765625 131.042969 210.523438 130.726562 216.285156 C 126.574219 216.285156 122.421875 216.285156 118.144531 216.285156 C 116.972656 193.472656 117.152344 171.066406 127.582031 150.210938 C 133.628906 144.410156 133.628906 144.410156 140.167969 140.769531 Z M 140.167969 140.769531 " fill-opacity="1" fill-rule="nonzero"/><path fill="#cbe1fa" d="M 288.046875 445.972656 C 308.8125 445.972656 329.578125 445.972656 350.972656 445.972656 C 350.972656 450.128906 350.972656 454.28125 350.972656 458.558594 C 330.207031 458.558594 309.441406 458.558594 288.046875 458.558594 C 288.046875 454.40625 288.046875 450.253906 288.046875 445.972656 Z M 288.046875 445.972656 " fill-opacity="1" fill-rule="nonzero"/><path fill="#d0e4fa" d="M 476.824219 445.972656 C 496.554688 445.972656 516.28125 445.972656 536.605469 445.972656 C 536.605469 450.128906 536.605469 454.28125 536.605469 458.558594 C 516.878906 458.558594 497.152344 458.558594 476.824219 458.558594 C 476.824219 454.40625 476.824219 450.253906 476.824219 445.972656 Z M 476.824219 445.972656 " fill-opacity="1" fill-rule="nonzero"/><path fill="#d3e6fa" d="M 476.824219 423.949219 C 496.554688 423.949219 516.28125 423.949219 536.605469 423.949219 C 536.605469 428.101562 536.605469 432.257812 536.605469 436.535156 C 516.878906 436.535156 497.152344 436.535156 476.824219 436.535156 C 476.824219 432.382812 476.824219 428.230469 476.824219 423.949219 Z M 476.824219 423.949219 " fill-opacity="1" fill-rule="nonzero"/><path fill="#a1c8f6" d="M 612.117188 191.113281 C 621.460938 191.113281 630.808594 191.113281 640.433594 191.113281 C 638.359375 193.191406 636.28125 195.265625 634.140625 197.40625 C 631.027344 197.40625 627.914062 197.40625 624.703125 197.40625 C 624.550781 199.949219 624.394531 202.492188 624.238281 205.113281 C 624 208.476562 623.765625 211.835938 623.523438 215.300781 C 623.304688 218.625 623.085938 221.945312 622.859375 225.367188 C 621.597656 234.871094 619.226562 242.214844 615.265625 250.894531 C 614.226562 250.894531 613.1875 250.894531 612.117188 250.894531 C 612.117188 231.167969 612.117188 211.441406 612.117188 191.113281 Z M 612.117188 191.113281 " fill-opacity="1" fill-rule="nonzero"/><path fill="#e0eefb" d="M 288.046875 427.097656 C 307.773438 427.097656 327.5 427.097656 347.824219 427.097656 C 347.824219 430.210938 347.824219 433.324219 347.824219 436.535156 C 328.097656 436.535156 308.371094 436.535156 288.046875 436.535156 C 288.046875 433.421875 288.046875 430.304688 288.046875 427.097656 Z M 288.046875 427.097656 " fill-opacity="1" fill-rule="nonzero"/><path fill="#fcfdfd" d="M 121.289062 222.578125 C 124.402344 222.578125 127.519531 222.578125 130.726562 222.578125 C 130.980469 231.886719 131.167969 241.191406 131.316406 250.503906 C 131.4375 254.476562 131.4375 254.476562 131.558594 258.527344 C 131.589844 261.0625 131.617188 263.597656 131.648438 266.210938 C 131.699219 268.550781 131.75 270.890625 131.800781 273.300781 C 131.269531 276.226562 131.269531 276.226562 130.726562 279.214844 C 127.613281 281.289062 124.5 283.367188 121.289062 285.507812 C 121.289062 264.742188 121.289062 243.972656 121.289062 222.578125 Z M 121.289062 222.578125 " fill-opacity="1" fill-rule="nonzero"/><path fill="#9ec6f5" d="M 317.542969 375.574219 C 328.269531 377.105469 331.75 380.984375 338.386719 389.339844 C 338.386719 391.414062 338.386719 393.492188 338.386719 395.632812 C 324.890625 395.632812 311.390625 395.632812 297.484375 395.632812 C 306.652344 377.292969 306.652344 377.292969 317.542969 375.574219 Z M 317.542969 375.574219 " fill-opacity="1" fill-rule="nonzero"/><path fill="#eff8fe" d="M 653.019531 634.761719 C 653.019531 636.835938 653.019531 638.914062 653.019531 641.054688 C 646.402344 643.613281 639.78125 646.167969 633.160156 648.722656 C 627.628906 650.859375 627.628906 650.859375 621.988281 653.035156 C 615.597656 655.464844 609.164062 657.769531 602.679688 659.933594 C 603.664062 652.457031 603.664062 652.457031 605.824219 644.199219 C 615.246094 637.921875 618.636719 636.910156 629.421875 635.941406 C 633.074219 635.585938 633.074219 635.585938 636.796875 635.226562 C 642.195312 634.855469 647.609375 634.761719 653.019531 634.761719 Z M 653.019531 634.761719 " fill-opacity="1" fill-rule="nonzero"/><path fill="#c7e0f9" d="M 486.265625 486.878906 C 499.761719 486.878906 513.261719 486.878906 527.167969 486.878906 C 520.875 499.464844 520.875 499.464844 517.726562 502.609375 C 497.785156 504.085938 497.785156 504.085938 489.609375 498.285156 C 486.265625 493.171875 486.265625 493.171875 486.265625 486.878906 Z M 486.265625 486.878906 " fill-opacity="1" fill-rule="nonzero"/><path fill="#c8e0f9" d="M 297.484375 486.878906 C 310.980469 486.878906 324.480469 486.878906 338.386719 486.878906 C 332.09375 499.464844 332.09375 499.464844 325.800781 502.609375 C 308.886719 504.050781 308.886719 504.050781 301.023438 498.285156 C 297.484375 493.171875 297.484375 493.171875 297.484375 486.878906 Z M 297.484375 486.878906 " fill-opacity="1" fill-rule="nonzero"/><path fill="#eff8ff" d="M 379.289062 678.808594 C 391.75 678.808594 404.207031 678.808594 417.046875 678.808594 C 416.007812 681.925781 414.96875 685.039062 413.898438 688.25 C 398.046875 690.867188 383.023438 691.734375 366.898438 691.59375 C 364.75 691.578125 362.597656 691.5625 360.378906 691.550781 C 355.144531 691.511719 349.914062 691.457031 344.679688 691.394531 C 344.679688 690.359375 344.679688 689.320312 344.679688 688.25 C 346.914062 688.09375 349.148438 687.941406 351.453125 687.78125 C 355.789062 687.429688 355.789062 687.429688 360.214844 687.070312 C 363.097656 686.851562 365.980469 686.632812 368.953125 686.40625 C 372.511719 685.761719 372.511719 685.761719 376.144531 685.101562 C 377.179688 683.027344 378.21875 680.949219 379.289062 678.808594 Z M 379.289062 678.808594 " fill-opacity="1" fill-rule="nonzero"/><path fill="#e2effc" d="M 291.191406 405.070312 C 307.804688 405.070312 324.417969 405.070312 341.53125 405.070312 C 342.570312 408.1875 343.609375 411.300781 344.679688 414.511719 C 327.027344 414.511719 309.378906 414.511719 291.191406 414.511719 C 291.191406 411.394531 291.191406 408.28125 291.191406 405.070312 Z M 291.191406 405.070312 " fill-opacity="1" fill-rule="nonzero"/><path fill="#c6dff9" d="M 504.550781 379.113281 C 515.476562 379.96875 519.511719 381.683594 527.167969 389.339844 C 527.167969 391.414062 527.167969 393.492188 527.167969 395.632812 C 513.667969 395.632812 500.171875 395.632812 486.265625 395.632812 C 494.058594 380.046875 494.058594 380.046875 504.550781 379.113281 Z M 504.550781 379.113281 " fill-opacity="1" fill-rule="nonzero"/><path fill="#e3f0fc" d="M 483.117188 405.070312 C 499.730469 405.070312 516.34375 405.070312 533.460938 405.070312 C 533.460938 408.1875 533.460938 411.300781 533.460938 414.511719 C 515.808594 414.511719 498.15625 414.511719 479.972656 414.511719 C 481.011719 411.394531 482.046875 408.28125 483.117188 405.070312 Z M 483.117188 405.070312 " fill-opacity="1" fill-rule="nonzero"/><path fill="#b0d0f8" d="M 662.460938 615.882812 C 662.460938 617.957031 662.460938 620.035156 662.460938 622.175781 C 659.34375 623.730469 659.34375 623.730469 656.167969 625.320312 C 655.128906 628.4375 654.089844 631.550781 653.019531 634.761719 C 639.238281 640.085938 623.675781 642 608.972656 641.054688 C 613.960938 631.078125 624.085938 629.011719 633.945312 624.925781 C 635.980469 624.054688 638.015625 623.183594 640.109375 622.285156 C 655.296875 615.882812 655.296875 615.882812 662.460938 615.882812 Z M 662.460938 615.882812 " fill-opacity="1" fill-rule="nonzero"/><path fill="#fefeff" d="M 690.777344 153.355469 C 699.773438 162.351562 700.234375 172.730469 702.378906 184.820312 C 702.828125 187.140625 703.273438 189.460938 703.738281 191.851562 C 706.914062 209.179688 706.914062 209.179688 703.363281 216.285156 C 700.246094 216.285156 697.132812 216.285156 693.921875 216.285156 C 693.988281 212.328125 694.054688 208.367188 694.121094 204.289062 C 694.148438 187.195312 692.554688 170.34375 690.777344 153.355469 Z M 690.777344 153.355469 " fill-opacity="1" fill-rule="nonzero"/><path fill="#fafcfe" d="M 571.214844 140.769531 C 574.332031 141.808594 577.445312 142.847656 580.65625 143.917969 C 578.144531 146.007812 575.632812 148.09375 573.046875 150.246094 C 563.453125 161.347656 561.914062 170.136719 560.792969 184.230469 C 560.5625 186.410156 560.335938 188.589844 560.097656 190.835938 C 559.546875 196.167969 559.082031 201.507812 558.628906 206.847656 C 554.476562 205.808594 550.324219 204.769531 546.046875 203.699219 C 549.160156 199.027344 549.160156 199.027344 552.335938 194.261719 C 554.035156 183.933594 555.132812 173.609375 556.246094 163.203125 C 558.945312 152.0625 562.492188 147.957031 571.214844 140.769531 Z M 571.214844 140.769531 " fill-opacity="1" fill-rule="nonzero"/><path fill="#4d97ef" d="M 608.972656 191.113281 C 610.011719 191.113281 611.046875 191.113281 612.117188 191.113281 C 613.15625 209.804688 614.195312 228.492188 615.265625 247.75 C 616.304688 247.75 617.339844 247.75 618.410156 247.75 C 617.371094 257.09375 616.335938 266.4375 615.265625 276.066406 C 613.1875 276.066406 611.109375 276.066406 608.972656 276.066406 C 608.972656 248.03125 608.972656 220 608.972656 191.113281 Z M 608.972656 191.113281 " fill-opacity="1" fill-rule="nonzero"/><path fill="#9ec7f6" d="M 719.09375 304.386719 C 722.207031 306.460938 725.324219 308.539062 728.53125 310.679688 C 727.496094 312.753906 726.457031 314.832031 725.386719 316.972656 C 719.15625 314.894531 712.925781 312.816406 706.507812 310.679688 C 707.546875 317.945312 708.585938 325.214844 709.65625 332.703125 C 701.082031 325.300781 697.652344 318.152344 693.921875 307.53125 C 702.640625 303.171875 709.445312 303.792969 719.09375 304.386719 Z M 719.09375 304.386719 " fill-opacity="1" fill-rule="nonzero"/><path fill="#5098ef" d="M 243.996094 338.996094 C 239.628906 348.839844 234.523438 355.613281 226.886719 363.183594 C 225.011719 365.078125 223.132812 366.972656 221.199219 368.925781 C 215.679688 373.605469 215.679688 373.605469 206.242188 376.753906 C 210.863281 366.058594 216.875 358.976562 225.117188 350.796875 C 227.324219 348.574219 229.53125 346.351562 231.804688 344.058594 C 237.703125 338.996094 237.703125 338.996094 243.996094 338.996094 Z M 243.996094 338.996094 " fill-opacity="1" fill-rule="nonzero"/><path fill="#5fa1f0" d="M 89.824219 323.265625 C 90.863281 325.339844 91.902344 327.417969 92.972656 329.554688 C 88.007812 329.847656 88.007812 329.847656 82.941406 330.148438 C 68.882812 333.144531 64.621094 337.957031 55.214844 348.433594 C 53.140625 348.433594 51.0625 348.433594 48.921875 348.433594 C 52.300781 339.261719 54.519531 333.402344 61.507812 326.410156 C 68.316406 325.105469 68.316406 325.105469 76.058594 324.445312 C 78.632812 324.207031 81.203125 323.972656 83.851562 323.730469 C 85.824219 323.578125 87.792969 323.421875 89.824219 323.265625 Z M 89.824219 323.265625 " fill-opacity="1" fill-rule="nonzero"/><path fill="#9ec6f6" d="M 744.265625 326.410156 C 751.53125 326.410156 758.800781 326.410156 766.289062 326.410156 C 767.328125 328.488281 768.367188 330.5625 769.433594 332.703125 C 762.167969 331.664062 754.898438 330.625 747.410156 329.558594 C 748.515625 331.894531 749.617188 334.230469 750.753906 336.636719 C 753.84375 345.703125 753.804688 349.101562 750.558594 357.875 C 746.402344 351.644531 742.25 345.414062 737.972656 338.996094 C 740.046875 334.84375 742.125 330.6875 744.265625 326.410156 Z M 744.265625 326.410156 " fill-opacity="1" fill-rule="nonzero"/><path fill="#e7f2fc" d="M 313.214844 379.898438 C 320.6875 380.882812 320.6875 380.882812 328.949219 383.046875 C 331.023438 386.160156 333.101562 389.277344 335.242188 392.484375 C 325.894531 392.484375 316.550781 392.484375 306.921875 392.484375 C 309 388.332031 311.078125 384.179688 313.214844 379.898438 Z M 313.214844 379.898438 " fill-opacity="1" fill-rule="nonzero"/><path fill="#cae0fa" d="M 646.726562 631.613281 C 645.691406 633.691406 644.652344 635.765625 643.582031 637.90625 C 637.300781 639.320312 637.300781 639.320312 629.621094 640.070312 C 627.09375 640.339844 624.566406 640.613281 621.960938 640.894531 C 615.265625 641.054688 615.265625 641.054688 608.972656 637.90625 C 620.480469 631.265625 634.179688 625.339844 646.726562 631.613281 Z M 646.726562 631.613281 " fill-opacity="1" fill-rule="nonzero"/><path fill="#afd1f7" d="M 20.605469 389.339844 C 21.644531 389.339844 22.683594 389.339844 23.753906 389.339844 C 24.789062 397.644531 25.828125 405.953125 26.898438 414.511719 C 21.707031 413.472656 16.515625 412.433594 11.167969 411.363281 C 17.066406 396.417969 17.066406 396.417969 20.605469 389.339844 Z M 20.605469 389.339844 " fill-opacity="1" fill-rule="nonzero"/><path fill="#e0eefb" d="M 615.265625 194.261719 C 619.417969 195.296875 623.570312 196.335938 627.851562 197.40625 C 626.875 199.09375 625.902344 200.78125 624.898438 202.519531 C 620.996094 211.246094 619.699219 219.433594 618.410156 228.871094 C 617.371094 228.871094 616.335938 228.871094 615.265625 228.871094 C 615.265625 217.449219 615.265625 206.027344 615.265625 194.261719 Z M 615.265625 194.261719 " fill-opacity="1" fill-rule="nonzero"/><path fill="#4d96ef" d="M 709.65625 323.265625 C 715.148438 331.503906 717.164062 335.96875 719.09375 345.289062 C 714.941406 344.25 710.789062 343.210938 706.507812 342.140625 C 704.542969 336.242188 704.542969 336.242188 703.363281 329.554688 C 705.4375 327.480469 707.515625 325.402344 709.65625 323.265625 Z M 709.65625 323.265625 " fill-opacity="1" fill-rule="nonzero"/></svg>